<svg width="40" height="40" viewBox="0 0 40 40" fill="none" xmlns="http://www.w3.org/2000/svg">
<g id="octicon:feed-discussion-16" clip-path="url(#clip0_422_1722)">
<path id="Vector" d="M20 40C14.6957 40 9.60859 37.8929 5.85786 34.1421C2.10714 30.3914 0 25.3043 0 20C0 14.6957 2.10714 9.60859 5.85786 5.85786C9.60859 2.10714 14.6957 0 20 0C25.3043 0 30.3914 2.10714 34.1421 5.85786C37.8929 9.60859 40 14.6957 40 20C40 25.3043 37.8929 30.3914 34.1421 34.1421C30.3914 37.8929 25.3043 40 20 40ZM10 12.5V25C10 25.663 10.2634 26.2989 10.7322 26.7678C11.2011 27.2366 11.837 27.5 12.5 27.5H15V31.25C14.9996 31.4976 15.0726 31.7397 15.2099 31.9456C15.3473 32.1516 15.5427 32.3122 15.7713 32.407C16 32.5018 16.2517 32.5265 16.4945 32.4781C16.7372 32.4297 16.9602 32.3103 17.135 32.135L21.7675 27.5H27.5C28.163 27.5 28.7989 27.2366 29.2678 26.7678C29.7366 26.2989 30 25.663 30 25V12.5C30 11.837 29.7366 11.2011 29.2678 10.7322C28.7989 10.2634 28.163 10 27.5 10H12.5C11.837 10 11.2011 10.2634 10.7322 10.7322C10.2634 11.2011 10 11.837 10 12.5Z" fill="#4D77FF"/>
</g>
<defs>
<clipPath id="clip0_422_1722">
<rect width="40" height="40" fill="white"/>
</clipPath>
</defs>
</svg>
