<svg width="40" height="40" viewBox="0 0 40 40" fill="none" xmlns="http://www.w3.org/2000/svg">
<g id="mdi:chat-question">
<path id="Vector" d="M20.0002 5C10.8335 5 3.3335 11 3.3335 18.3333C3.3335 21.8333 5.00016 25.1667 8.00016 27.5C8.00016 28.5 7.3335 31.1667 3.3335 35C3.3335 35 9.16683 35 14.1668 30.8333C16.0002 31.3333 18.0002 31.6667 20.0002 31.6667C29.1668 31.6667 36.6668 25.6667 36.6668 18.3333C36.6668 11 29.1668 5 20.0002 5ZM21.6668 25H18.3335V21.6667H21.6668V25ZM24.6668 16.6667C24.1668 17.3333 23.5002 17.6667 22.8335 18C22.3335 18.3333 22.1668 18.5 22.0002 18.8333C21.6668 19.1667 21.6668 19.5 21.6668 20H18.3335C18.3335 19.1667 18.5002 18.6667 18.8335 18.1667C19.1668 17.8333 19.8335 17.3333 20.6668 16.8333C21.1668 16.6667 21.5002 16.3333 21.6668 16C21.8335 15.6667 22.0002 15.1667 22.0002 14.8333C22.0002 14.3333 21.8335 14 21.5002 13.6667C21.1668 13.3333 20.6668 13.1667 20.1668 13.1667C19.6668 13.1667 19.3335 13.3333 19.0002 13.5C18.6668 13.6667 18.5002 14 18.5002 14.5H15.1668C15.3335 13.3333 15.8335 12.3333 16.6668 11.6667C17.5002 11 18.6668 10.8333 20.1668 10.8333C21.6668 10.8333 23.0002 11.1667 23.8335 11.8333C24.6668 12.5 25.1668 13.5 25.1668 14.6667C25.3335 15.3333 25.1668 16 24.6668 16.6667Z" fill="#4D77FF"/>
</g>
</svg>
