<svg width="47" height="59" viewBox="0 0 47 59" fill="none" xmlns="http://www.w3.org/2000/svg">
<g id="&#240;&#159;&#166;&#134; icon &#34;book add&#34;">
<path id="Vector" d="M7.89567 46.6105H41.7414H44.3473H46.9532V43.7588V38.0553V6.68594C46.9532 3.54045 44.6157 0.982422 41.7414 0.982422H7.8644C4.72166 0.982422 0.0466309 3.26098 0.0466309 9.53769V18.093V35.2035V43.7588V49.4623C0.0466309 55.739 4.72166 58.0176 7.8644 58.0176H46.9532V52.3141H7.89567C6.69174 52.2798 5.25848 51.7608 5.25848 49.4623C5.25848 47.1638 6.69174 46.6448 7.89567 46.6105ZM13.0762 20.9447H20.894V12.3895H26.1059V20.9447H33.9236V26.6482H26.1059V35.2035H20.894V26.6482H13.0762V20.9447Z" fill="#4D77FF"/>
</g>
</svg>
