<svg width="53" height="61" viewBox="0 0 53 61" fill="none" xmlns="http://www.w3.org/2000/svg">
<path d="M15.4642 60.5C19.5952 60.5 23.4818 58.6788 26.4029 55.3727L48.4783 30.3914C54.5093 23.5621 54.5062 12.4496 48.4752 5.62374C45.551 2.31765 41.6676 0.5 37.5334 0.5C33.4024 0.5 29.519 2.32115 26.5979 5.62725L4.52246 30.6086C-1.50542 37.4344 -1.50852 48.5469 4.51936 55.3763C7.44356 58.6824 11.3301 60.5 15.4642 60.5ZM30.9702 10.5794C32.7217 8.59713 35.0517 7.50444 37.5303 7.50444C40.0121 7.50444 42.3452 8.59713 44.0967 10.5794C47.7171 14.6735 47.7171 21.3417 44.0998 25.4393L35.1477 35.5677L22.0213 20.7043L30.9702 10.5794Z" fill="#4D77FF"/>
</svg>
