<svg width="24" height="24" viewBox="0 0 24 24" fill="none" xmlns="http://www.w3.org/2000/svg">
<g id="like">
<path id="Vector" d="M21.1544 7.5H14.8537L16.1145 3.29125C16.3413 2.53125 16.2268 1.68875 15.8057 1.03875C15.3847 0.38875 14.7021 0 13.9824 0H12.1726C11.8391 0 11.5236 0.165 11.3092 0.45L6.03239 7.5H3.19077C1.9524 7.5 0.945312 8.62125 0.945312 10V21.25C0.945312 22.6287 1.9524 23.75 3.19077 23.75H6.55895H18.1309C19.0616 23.75 19.9059 23.0987 20.2338 22.1275L23.3291 12.9387C23.3763 12.7987 23.3999 12.65 23.3999 12.5V10C23.3999 8.62125 22.3928 7.5 21.1544 7.5ZM3.19077 10H5.43622V21.25H3.19077V10ZM21.1544 12.2738L18.1309 21.25H7.68168V9.2025L12.698 2.5H13.9847L12.231 8.35375C12.1153 8.735 12.1737 9.15375 12.3848 9.48C12.5959 9.8075 12.9349 10 13.2953 10H21.1544V12.2738Z" fill="#616161"/>
</g>
</svg>
