<svg width="55" height="55" viewBox="0 0 55 55" fill="none" xmlns="http://www.w3.org/2000/svg">
<g id="&#240;&#159;&#166;&#134; icon &#34;chat&#34;">
<path id="Vector" d="M5.68935 43.7477H8.41568H11.142V54.8738L25.049 43.7477H27.5H38.4053C41.4124 43.7477 43.858 41.3022 43.858 38.295V16.4844C43.858 13.4773 41.4124 11.0317 38.4053 11.0317H5.68935C2.68221 11.0317 0.236694 13.4773 0.236694 16.4844V38.295C0.236694 41.3022 2.68221 43.7477 5.68935 43.7477Z" fill="#4D77FF"/>
<path id="Vector_2" d="M49.3107 0.126465H46.5844H41.1263H19.3211H16.5947C13.5876 0.126465 11.1421 2.57198 11.1421 5.57912H19.3211H40.003H43.858C46.8652 5.57912 49.3107 8.02464 49.3107 11.0318V14.8868V24.6634V32.8424C52.3178 32.8424 54.7634 30.3969 54.7634 27.3898V24.6634V13.7581V8.30545V5.57912C54.7634 2.57198 52.3178 0.126465 49.3107 0.126465Z" fill="#4D77FF"/>
</g>
</svg>
